# xmcd
#
# Track frame offsets: 
#        150
#        14948
#        27818
#        48444
#        63266
#        76941
#        88479
#        104911
#        121142
#        136947
#        151775
#        166303
#        184153
#        199346
#        215232
#        230716
#        245413
#        262810
#        279083
#        294259
#        309987
#        326309
#
# Disc length: 4585 seconds
#
# Revision: 6
# Processed by: cddbd v1.5.2PL0 Copyright (c) Steve Scherf et al.
# Submitted via: ExactAudioCopyFreeDBPlugin 1.0
#
DISCID=3911e716
DTITLE=Various Artist - Stax 50th Anniversary Celebration [CD2]
DYEAR=2007
DGENRE=R&B/Soul
TTITLE0=Booker T. and The M.G.'s - Time Is Tight
TTITLE1=The Emotions - So I Can Love You
TTITLE2=Isaac Hayes - Walk On By
TTITLE3=Rufus Thomas - Do The Funky Chicken
TTITLE4=Johnnie Taylor - Jody's Got Your Girl And Gone
TTITLE5=Jean Knight - Mr. Big Stuff
TTITLE6=Isaac Hayes - Never Can Say Goodbye
TTITLE7=The Dramatics - Whatcha See Is Whatcha Get
TTITLE8=The Staple Singers - Respect Yourself
TTITLE9=Isaac Hayes - Theme From Shaft
TTITLE10=The Bar-Kays - Son Of Shaft
TTITLE11=Little Milton - That's What Love Will Make You Do
TTITLE12=Frederick Knight - I've Been Lonely For So Long
TTITLE13=Soul Children - Hearsay
TTITLE14=The Dramatics - In The Rain
TTITLE15=The Staple Singers - I'll Take You There
TTITLE16=Mel and Tim - Starting All Over Again
TTITLE17=The Temprees - Dedicated To The One I Love
TTITLE18=The Staple Singers - If You're Ready (Come Go With Me)
TTITLE19=Johnnie Taylor - Cheaper To Keep Her
TTITLE20=Soul Children - I'll Be The Other Woman
TTITLE21=Shirley Brown - Woman To Woman
EXTD=Label: Concord Music Group, Inc. (Stax Records)STX2-30203-2
EXTT0=
EXTT1=
EXTT2=
EXTT3=
EXTT4=
EXTT5=
EXTT6=
EXTT7=
EXTT8=
EXTT9=
EXTT10=
EXTT11=
EXTT12=
EXTT13=
EXTT14=
EXTT15=
EXTT16=
EXTT17=
EXTT18=
EXTT19=
EXTT20=
EXTT21=
PLAYORDER=
